<svg width="642" height="387" viewBox="0 0 642 387" fill="none" xmlns="http://www.w3.org/2000/svg">
<g filter="url(#filter0_d_470_419)">
<path d="M27.2539 272.025V195.128C72.9816 195.128 116.837 176.962 149.171 144.628C181.505 112.293 199.67 68.4387 199.67 22.7109H276.568C276.568 88.8333 250.301 152.247 203.546 199.003C156.79 245.758 93.3762 272.025 27.2539 272.025Z" fill="#0A1FD2"/>
<path d="M584.545 75.088L584.545 151.986C538.817 151.986 494.962 170.151 462.628 202.486C430.294 234.82 412.128 278.675 412.128 324.402L335.231 324.402C335.231 258.28 361.497 194.866 408.253 148.11C455.008 101.355 518.423 75.088 584.545 75.088Z" fill="#0A1FD2"/>
<rect x="199.051" y="22.7109" width="90.0884" height="301.691" fill="#0A1FD2"/>
<rect x="410.652" y="324.402" width="90.0884" height="301.691" transform="rotate(-180 410.652 324.402)" fill="#0A1FD2"/>
</g>
<defs>
<filter id="filter0_d_470_419" x="0.253906" y="0.710938" width="641.291" height="385.691" filterUnits="userSpaceOnUse" color-interpolation-filters="sRGB">
<feFlood flood-opacity="0" result="BackgroundImageFix"/>
<feColorMatrix in="SourceAlpha" type="matrix" values="0 0 0 0 0 0 0 0 0 0 0 0 0 0 0 0 0 0 127 0" result="hardAlpha"/>
<feOffset dx="15" dy="20"/>
<feGaussianBlur stdDeviation="21"/>
<feComposite in2="hardAlpha" operator="out"/>
<feColorMatrix type="matrix" values="0 0 0 0 0.0392157 0 0 0 0 0.121569 0 0 0 0 0.823529 0 0 0 0.5 0"/>
<feBlend mode="normal" in2="BackgroundImageFix" result="effect1_dropShadow_470_419"/>
<feBlend mode="normal" in="SourceGraphic" in2="effect1_dropShadow_470_419" result="shape"/>
</filter>
</defs>
</svg>
